<svg width="26" height="26" viewBox="0 0 26 26" fill="white" xmlns="http://www.w3.org/2000/svg">
<path fill-rule="evenodd" clip-rule="evenodd" d="M8.08725 1.15487C9.358 1.09637 9.76316 1.08337 13.0002 1.08337C16.2372 1.08337 16.6423 1.09746 17.912 1.15487C19.1817 1.21229 20.0483 1.41487 20.8067 1.70846C21.6007 2.00854 22.3212 2.47762 22.917 3.08429C23.5237 3.67904 23.9917 4.39837 24.2907 5.19354C24.5853 5.95187 24.7868 6.81854 24.8453 8.08604C24.9038 9.35896 24.9168 9.76412 24.9168 13C24.9168 16.237 24.9027 16.6422 24.8453 17.913C24.7879 19.1805 24.5853 20.0471 24.2907 20.8055C23.9917 21.6007 23.5229 22.3213 22.917 22.9169C22.3212 23.5235 21.6007 23.9915 20.8067 24.2905C20.0483 24.5852 19.1817 24.7867 17.9142 24.8452C16.6423 24.9037 16.2372 24.9167 13.0002 24.9167C9.76316 24.9167 9.358 24.9026 8.08725 24.8452C6.81975 24.7878 5.95308 24.5852 5.19475 24.2905C4.39949 23.9915 3.67897 23.5227 3.08333 22.9169C2.47707 22.3218 2.00792 21.6016 1.70858 20.8065C1.415 20.0482 1.2135 19.1815 1.155 17.914C1.0965 16.6411 1.0835 16.236 1.0835 13C1.0835 9.76304 1.09758 9.35787 1.155 8.08821C1.21241 6.81854 1.415 5.95187 1.70858 5.19354C2.00836 4.39846 2.47787 3.6783 3.08441 3.08321C3.67921 2.47708 4.39901 2.00794 5.19366 1.70846C5.952 1.41487 6.81866 1.21337 8.08616 1.15487H8.08725ZM17.8156 3.29987C16.5589 3.24246 16.1819 3.23054 13.0002 3.23054C9.81841 3.23054 9.44141 3.24246 8.18475 3.29987C7.02233 3.35296 6.39183 3.54687 5.9715 3.71046C5.41575 3.92712 5.01816 4.18387 4.60108 4.60096C4.20571 4.9856 3.90144 5.45385 3.71058 5.97137C3.547 6.39171 3.35308 7.02221 3.3 8.18462C3.24258 9.44129 3.23066 9.81829 3.23066 13C3.23066 16.1818 3.24258 16.5588 3.3 17.8155C3.35308 18.9779 3.547 19.6084 3.71058 20.0287C3.90125 20.5455 4.20566 21.0145 4.60108 21.3991C4.98566 21.7945 5.45475 22.099 5.9715 22.2896C6.39183 22.4532 7.02233 22.6471 8.18475 22.7002C9.44141 22.7576 9.81733 22.7695 13.0002 22.7695C16.183 22.7695 16.5589 22.7576 17.8156 22.7002C18.978 22.6471 19.6085 22.4532 20.0288 22.2896C20.5846 22.073 20.9822 21.8162 21.3992 21.3991C21.7947 21.0145 22.0991 20.5455 22.2897 20.0287C22.4533 19.6084 22.6472 18.9779 22.7003 17.8155C22.7577 16.5588 22.7697 16.1818 22.7697 13C22.7697 9.81829 22.7577 9.44129 22.7003 8.18462C22.6472 7.02221 22.4533 6.39171 22.2897 5.97137C22.0731 5.41562 21.8163 5.01804 21.3992 4.60096C21.0146 4.20562 20.5463 3.90135 20.0288 3.71046C19.6085 3.54687 18.978 3.35296 17.8156 3.29987ZM11.4781 16.6736C12.3281 17.0275 13.2747 17.0752 14.156 16.8087C15.0373 16.5422 15.7988 15.978 16.3104 15.2125C16.822 14.4469 17.0519 13.5275 16.9609 12.6112C16.8699 11.695 16.4636 10.8388 15.8114 10.1888C15.3957 9.77331 14.893 9.45517 14.3395 9.25728C13.7861 9.0594 13.1956 8.98668 12.6107 9.04437C12.0258 9.10207 11.4609 9.28873 10.9568 9.59093C10.4527 9.89313 10.0218 10.3033 9.69524 10.792C9.36868 11.2807 9.15453 11.8358 9.06822 12.4172C8.98191 12.9986 9.02558 13.5919 9.19608 14.1543C9.36658 14.7168 9.65968 15.2345 10.0543 15.6702C10.4489 16.1058 10.9351 16.4485 11.4781 16.6736ZM8.669 8.66887C9.23777 8.1001 9.91301 7.64892 10.6562 7.3411C11.3993 7.03328 12.1958 6.87485 13.0002 6.87485C13.8045 6.87485 14.601 7.03328 15.3442 7.3411C16.0873 7.64892 16.7626 8.1001 17.3313 8.66887C17.9001 9.23765 18.3513 9.91289 18.6591 10.656C18.9669 11.3992 19.1254 12.1957 19.1254 13C19.1254 13.8044 18.9669 14.6009 18.6591 15.3441C18.3513 16.0872 17.9001 16.7624 17.3313 17.3312C16.1826 18.4799 14.6247 19.1252 13.0002 19.1252C11.3757 19.1252 9.81769 18.4799 8.669 17.3312C7.5203 16.1825 6.87497 14.6245 6.87497 13C6.87497 11.3755 7.5203 9.81757 8.669 8.66887ZM20.4838 7.78704C20.6248 7.65408 20.7376 7.49419 20.8157 7.31685C20.8937 7.1395 20.9354 6.94829 20.9382 6.75455C20.941 6.56081 20.9049 6.36847 20.8321 6.18892C20.7593 6.00937 20.6511 5.84626 20.5141 5.70925C20.3771 5.57224 20.214 5.46411 20.0345 5.39127C19.8549 5.31842 19.6626 5.28235 19.4688 5.28517C19.2751 5.288 19.0839 5.32967 18.9065 5.40771C18.7292 5.48576 18.5693 5.59859 18.4363 5.73954C18.1777 6.01366 18.0362 6.37776 18.0417 6.75455C18.0472 7.13134 18.1993 7.49116 18.4657 7.75762C18.7322 8.02408 19.092 8.1762 19.4688 8.1817C19.8456 8.18719 20.2097 8.04562 20.4838 7.78704Z" fill="#303030"/>
</svg>
