<svg width="26" height="26" viewBox="0 0 26 26" fill="white" xmlns="http://www.w3.org/2000/svg">
<path fill-rule="evenodd" clip-rule="evenodd" d="M1.0835 3.07442C1.0835 2.54633 1.29328 2.03987 1.6667 1.66645C2.04011 1.29304 2.54657 1.08325 3.07466 1.08325L22.9235 1.08325C23.1852 1.08283 23.4444 1.13402 23.6863 1.23391C23.9282 1.3338 24.148 1.48042 24.3332 1.66537C24.5183 1.85032 24.6652 2.06998 24.7653 2.31177C24.8655 2.55355 24.917 2.81272 24.9168 3.07442V22.9233C24.9171 23.185 24.8658 23.4443 24.7658 23.6862C24.6658 23.9281 24.5191 24.1479 24.334 24.333C24.149 24.5181 23.9292 24.665 23.6874 24.7651C23.4456 24.8653 23.1863 24.9167 22.9246 24.9166H3.07466C2.81309 24.9166 2.55408 24.865 2.31243 24.7649C2.07078 24.6648 1.85122 24.518 1.66631 24.333C1.4814 24.148 1.33476 23.9284 1.23475 23.6867C1.13475 23.445 1.08335 23.1859 1.0835 22.9243L1.0835 3.07442ZM10.5172 10.1703H13.7444V11.7909C14.2102 10.8593 15.4019 10.0208 17.1927 10.0208C20.6257 10.0208 21.4393 11.8765 21.4393 15.2814V21.5886H17.9651V16.0571C17.9651 14.1179 17.4992 13.0238 16.3162 13.0238C14.675 13.0238 13.9925 14.2035 13.9925 16.0571V21.5886H10.5172V10.1703ZM4.55883 21.4402H8.03416V10.0208H4.55883V21.4391V21.4402ZM8.53141 6.29625C8.53797 6.59382 8.48502 6.88969 8.37567 7.16651C8.26633 7.44333 8.10279 7.69553 7.89466 7.90829C7.68653 8.12105 7.438 8.2901 7.16366 8.40551C6.88931 8.52092 6.59467 8.58037 6.29704 8.58037C5.9994 8.58037 5.70477 8.52092 5.43042 8.40551C5.15607 8.2901 4.90754 8.12105 4.69941 7.90829C4.49128 7.69553 4.32775 7.44333 4.2184 7.16651C4.10906 6.88969 4.05611 6.59382 4.06266 6.29625C4.07552 5.71218 4.31658 5.15636 4.73421 4.74783C5.15183 4.3393 5.71282 4.11054 6.29704 4.11054C6.88125 4.11054 7.44225 4.3393 7.85987 4.74783C8.2775 5.15636 8.51855 5.71218 8.53141 6.29625Z" fill="#303030"/>
</svg>
