<svg width="176" height="176" viewBox="0 0 176 176" fill="none" xmlns="http://www.w3.org/2000/svg">
<circle cx="87.768" cy="87.7684" r="74" transform="rotate(12 87.768 87.7684)" fill="#2C2A2A"/>
<circle cx="88.1654" cy="87.5106" r="66.9683" transform="rotate(12 88.1654 87.5106)" fill="black"/>
<g clip-path="url(#clip0_98_155)">
<path d="M106.993 63.8966C107.409 64.2337 107.746 64.6154 108.004 65.0416C108.264 65.4657 108.424 65.9603 108.483 66.5254L112.403 103.824C112.522 104.954 112.234 105.949 111.537 106.809C110.843 107.667 109.93 108.155 108.8 108.274C107.67 108.393 106.688 108.115 105.856 107.441C105.023 106.766 104.547 105.864 104.428 104.734L101.518 77.0423L73.1968 112.016C72.4803 112.901 71.5905 113.387 70.5274 113.474C69.4663 113.562 68.4934 113.248 67.6087 112.532C66.7239 111.815 66.2237 110.916 66.108 109.833C65.996 108.749 66.2983 107.765 67.0147 106.881L95.2726 71.9849L67.5811 74.8954C66.4509 75.0142 65.4694 74.7365 64.6367 74.0621C63.804 73.3878 63.3282 72.4856 63.2094 71.3553C63.0906 70.225 63.3785 69.231 64.0731 68.3734C64.7693 67.5136 65.6825 67.0243 66.8128 66.9055L104.112 62.9853C104.677 62.9259 105.194 62.9791 105.662 63.1451C106.133 63.3089 106.576 63.5594 106.993 63.8966Z" fill="#F05941"/>
</g>
<defs>
<clipPath id="clip0_98_155">
<rect width="99.6972" height="99.6972" fill="white" transform="translate(38.4639 37.8888)"/>
</clipPath>
</defs>
</svg>
