<svg width="198" height="50" viewBox="0 0 198 50" fill="none" xmlns="http://www.w3.org/2000/svg">
<!-- <path d="M12 14L9 22L1 25L9 28L12 36L15 28L23 25L15 22L12 14Z" fill="orange"/> -->
<path d="M25.0002 2.08325L18.7502 18.7499L2.0835 24.9999L18.7502 31.2499L25.0002 47.9166L31.2502 31.2499L47.9168 24.9999L31.2502 18.7499L25.0002 2.08325Z" fill="#e1e1e1" fill-opacity="1"/>
<path d="M99.0002 2.08325L92.7502 18.7499L76.0835 24.9999L92.7502 31.2499L99.0002 47.9166L105.25 31.2499L121.917 24.9999L105.25 18.7499L99.0002 2.08325Z" fill="#e1e1e1" fill-opacity="1"/>
<path d="M173 2.08325L166.75 18.7499L150.083 24.9999L166.75 31.2499L173 47.9166L179.25 31.2499L195.917 24.9999L179.25 18.7499L173 2.08325Z" fill="#e1e1e1" fill-opacity="1"/>
</svg>
