<svg width="26" height="26" viewBox="0 0 26 26" fill="none" xmlns="http://www.w3.org/2000/svg">
<path d="M25.6133 5.34842C24.7087 5.74925 23.737 6.02009 22.7154 6.1425C23.7695 5.51178 24.5581 4.51909 24.9341 3.34967C23.9437 3.93791 22.8598 4.35196 21.7296 4.57384C20.9695 3.76227 19.9627 3.22436 18.8656 3.0436C17.7684 2.86284 16.6423 3.04936 15.6621 3.57419C14.6818 4.09903 13.9022 4.93281 13.4444 5.9461C12.9865 6.95938 12.876 8.09548 13.1301 9.178C11.1234 9.07725 9.16032 8.55568 7.36826 7.64715C5.57621 6.73862 3.99521 5.46343 2.72789 3.90434C2.29455 4.65184 2.04539 5.5185 2.04539 6.4415C2.0449 7.27241 2.24952 8.0906 2.64109 8.82346C3.03265 9.55633 3.59906 10.1812 4.29005 10.6427C3.48869 10.6172 2.705 10.4006 2.00422 10.0111V10.0761C2.00414 11.2415 2.40726 12.371 3.14517 13.273C3.88308 14.175 4.91034 14.7939 6.05264 15.0248C5.30924 15.2259 4.52984 15.2556 3.7733 15.1114C4.09559 16.1142 4.72338 16.991 5.56878 17.6193C6.41419 18.2475 7.43488 18.5956 8.48797 18.6149C6.70029 20.0183 4.49251 20.7795 2.2198 20.7762C1.81722 20.7763 1.41497 20.7528 1.01514 20.7058C3.32207 22.189 6.0075 22.9762 8.75014 22.9732C18.0343 22.9732 23.1097 15.2837 23.1097 8.61467C23.1097 8.398 23.1043 8.17917 23.0946 7.9625C24.0818 7.24856 24.934 6.36447 25.6111 5.35167L25.6133 5.34842Z" fill="#303030"/>
</svg>
